<?xml version="1.0" encoding="UTF-8"?><svg xmlns="http://www.w3.org/2000/svg" xmlns:xlink="http://www.w3.org/1999/xlink" fill-opacity="1" color-rendering="auto" color-interpolation="auto" stroke="black" text-rendering="auto" stroke-linecap="square" width="1028" stroke-miterlimit="10" stroke-opacity="1" shape-rendering="auto" fill="black" stroke-dasharray="none" font-weight="normal" stroke-width="1" height="1030" font-family="'Dialog'" font-style="normal" stroke-linejoin="miter" font-size="12px" stroke-dashoffset="0" image-rendering="auto">
  <!--Generated by ySVG 2.5-->
  <defs id="genericDefs"/>
  <g>
    <defs id="defs1">
      <linearGradient x1="767.2036" gradientUnits="userSpaceOnUse" x2="927.7964" y1="180" y2="220" id="linearGradient1" spreadMethod="reflect">
        <stop stop-opacity="1" stop-color="rgb(232,238,247)" offset="0%"/>
        <stop stop-opacity="1" stop-color="rgb(183,201,227)" offset="100%"/>
      </linearGradient>
      <linearGradient x1="62.9585" gradientUnits="userSpaceOnUse" x2="232.0415" y1="205" y2="245" id="linearGradient2" spreadMethod="reflect">
        <stop stop-opacity="1" stop-color="rgb(232,238,247)" offset="0%"/>
        <stop stop-opacity="1" stop-color="rgb(183,201,227)" offset="100%"/>
      </linearGradient>
      <linearGradient x1="562.208" gradientUnits="userSpaceOnUse" x2="632.792" y1="680" y2="720" id="linearGradient3" spreadMethod="reflect">
        <stop stop-opacity="1" stop-color="rgb(232,238,247)" offset="0%"/>
        <stop stop-opacity="1" stop-color="rgb(183,201,227)" offset="100%"/>
      </linearGradient>
      <linearGradient x1="410.1113" gradientUnits="userSpaceOnUse" x2="534.8887" y1="580" y2="620" id="linearGradient4" spreadMethod="reflect">
        <stop stop-opacity="1" stop-color="rgb(232,238,247)" offset="0%"/>
        <stop stop-opacity="1" stop-color="rgb(183,201,227)" offset="100%"/>
      </linearGradient>
      <linearGradient x1="405.001" gradientUnits="userSpaceOnUse" x2="489.999" y1="680" y2="720" id="linearGradient5" spreadMethod="reflect">
        <stop stop-opacity="1" stop-color="rgb(232,238,247)" offset="0%"/>
        <stop stop-opacity="1" stop-color="rgb(183,201,227)" offset="100%"/>
      </linearGradient>
      <linearGradient x1="86.3198" gradientUnits="userSpaceOnUse" x2="208.6802" y1="830" y2="870" id="linearGradient6" spreadMethod="reflect">
        <stop stop-opacity="1" stop-color="rgb(232,238,247)" offset="0%"/>
        <stop stop-opacity="1" stop-color="rgb(183,201,227)" offset="100%"/>
      </linearGradient>
      <linearGradient x1="74.125" gradientUnits="userSpaceOnUse" x2="220.875" y1="730" y2="770" id="linearGradient7" spreadMethod="reflect">
        <stop stop-opacity="1" stop-color="rgb(232,238,247)" offset="0%"/>
        <stop stop-opacity="1" stop-color="rgb(183,201,227)" offset="100%"/>
      </linearGradient>
      <clipPath clipPathUnits="userSpaceOnUse" id="clipPath1">
        <path d="M0 0 L1028 0 L1028 1030 L0 1030 L0 0 Z"/>
      </clipPath>
      <clipPath clipPathUnits="userSpaceOnUse" id="clipPath2">
        <path d="M-15 10 L1013 10 L1013 1040 L-15 1040 L-15 10 Z"/>
      </clipPath>
    </defs>
    <g fill="white" text-rendering="geometricPrecision" shape-rendering="geometricPrecision" transform="translate(15,-10)" stroke="white">
      <rect x="-15" width="1028" height="1030" y="10" clip-path="url(#clipPath2)" stroke="none"/>
    </g>
    <g fill="rgb(245,245,245)" text-rendering="geometricPrecision" shape-rendering="geometricPrecision" transform="matrix(1,0,0,1,15,-10)" stroke="rgb(245,245,245)">
      <rect x="697.5" y="25" clip-path="url(#clipPath2)" width="300" rx="4" ry="4" height="1000" stroke="none"/>
      <rect x="697.5" y="25" clip-path="url(#clipPath2)" fill="rgb(235,235,235)" width="300" height="27.2812" stroke="none"/>
    </g>
    <g font-size="20px" stroke-linecap="butt" transform="matrix(1,0,0,1,15,-10)" text-rendering="geometricPrecision" font-family="sans-serif" shape-rendering="geometricPrecision" stroke-miterlimit="1.45">
      <text x="811.8086" xml:space="preserve" y="45.5645" clip-path="url(#clipPath2)" stroke="none">Application Server</text>
      <rect x="697.5" y="25" clip-path="url(#clipPath2)" fill="none" width="300" stroke-dasharray="6,2" rx="4" ry="4" height="1000"/>
    </g>
    <g fill="url(#linearGradient1)" text-rendering="geometricPrecision" shape-rendering="geometricPrecision" transform="matrix(1,0,0,1,15,-10)" stroke="url(#linearGradient1)">
      <rect x="767.2036" y="180" clip-path="url(#clipPath2)" width="160.5928" rx="20" ry="20" height="40" stroke="none"/>
    </g>
    <g text-rendering="geometricPrecision" stroke-miterlimit="1.45" shape-rendering="geometricPrecision" transform="matrix(1,0,0,1,15,-10)" stroke-linecap="butt">
      <rect x="767.2036" y="180" clip-path="url(#clipPath2)" fill="none" width="160.5928" rx="20" ry="20" height="40"/>
      <text x="774.2036" font-size="18px" y="206.2314" clip-path="url(#clipPath2)" font-family="sans-serif" stroke="none" xml:space="preserve">Web Application</text>
    </g>
    <g fill="rgb(245,245,245)" text-rendering="geometricPrecision" shape-rendering="geometricPrecision" transform="matrix(1,0,0,1,15,-10)" stroke="rgb(245,245,245)">
      <rect x="0" y="140" clip-path="url(#clipPath2)" width="295" rx="4" ry="4" height="120" stroke="none"/>
      <rect x="0" y="140" clip-path="url(#clipPath2)" fill="rgb(235,235,235)" width="295" height="27.2812" stroke="none"/>
    </g>
    <g font-size="20px" stroke-linecap="butt" transform="matrix(1,0,0,1,15,-10)" text-rendering="geometricPrecision" font-family="sans-serif" shape-rendering="geometricPrecision" stroke-miterlimit="1.45">
      <text x="22.668" xml:space="preserve" y="160.5645" clip-path="url(#clipPath2)" stroke="none">Google Registration Server</text>
      <rect x="0" y="140" clip-path="url(#clipPath2)" fill="none" width="295" stroke-dasharray="6,2" rx="4" ry="4" height="120"/>
    </g>
    <g fill="url(#linearGradient2)" text-rendering="geometricPrecision" shape-rendering="geometricPrecision" transform="matrix(1,0,0,1,15,-10)" stroke="url(#linearGradient2)">
      <rect x="62.9585" y="205" clip-path="url(#clipPath2)" width="169.083" rx="20" ry="20" height="40" stroke="none"/>
    </g>
    <g text-rendering="geometricPrecision" stroke-miterlimit="1.45" shape-rendering="geometricPrecision" transform="matrix(1,0,0,1,15,-10)" stroke-linecap="butt">
      <rect x="62.9585" y="205" clip-path="url(#clipPath2)" fill="none" width="169.083" rx="20" ry="20" height="40"/>
      <text x="69.9585" font-size="18px" y="231.2314" clip-path="url(#clipPath2)" font-family="sans-serif" stroke="none" xml:space="preserve">Google Database</text>
    </g>
    <g text-rendering="geometricPrecision" stroke-miterlimit="1.45" shape-rendering="geometricPrecision" transform="matrix(1,0,0,1,15,-10)" stroke-linecap="butt">
      <path fill="none" d="M767.1748 200 L303 200" clip-path="url(#clipPath2)"/>
      <path d="M295 200 L307 205 L304 200 L307 195 Z" clip-path="url(#clipPath2)" stroke="none"/>
      <text x="480.1331" font-size="18px" y="183.7549" clip-path="url(#clipPath2)" font-family="sans-serif" stroke="none" xml:space="preserve">register Application</text>
      <path fill="none" d="M147.5 139.9675 L147.5 106.7647 L504.3922 107.0588 L546.451 106.7647 L847.5 106.7647 L847.5 171.9642" clip-path="url(#clipPath2)"/>
      <path d="M847.5 179.9642 L852.5 167.9642 L847.5 170.9642 L842.5 167.9642 Z" clip-path="url(#clipPath2)" stroke="none"/>
      <text x="454.0749" font-size="18px" y="90.7706" clip-path="url(#clipPath2)" font-family="sans-serif" stroke="none" xml:space="preserve">get ID</text>
    </g>
    <g fill="rgb(245,245,245)" text-rendering="geometricPrecision" shape-rendering="geometricPrecision" transform="matrix(1,0,0,1,15,-10)" stroke="rgb(245,245,245)">
      <rect x="390.001" y="515" clip-path="url(#clipPath2)" width="264.998" rx="4" ry="4" height="220" stroke="none"/>
      <rect x="390.001" y="515" clip-path="url(#clipPath2)" fill="rgb(235,235,235)" width="264.998" height="27.2812" stroke="none"/>
    </g>
    <g font-size="20px" stroke-linecap="butt" transform="matrix(1,0,0,1,15,-10)" text-rendering="geometricPrecision" font-family="sans-serif" shape-rendering="geometricPrecision" stroke-miterlimit="1.45">
      <text x="507.3447" xml:space="preserve" y="535.5645" clip-path="url(#clipPath2)" stroke="none">Sender Device</text>
      <rect x="390.001" y="515" clip-path="url(#clipPath2)" fill="none" width="264.998" stroke-dasharray="6,2" rx="4" ry="4" height="220"/>
    </g>
    <g fill="url(#linearGradient3)" text-rendering="geometricPrecision" shape-rendering="geometricPrecision" transform="matrix(1,0,0,1,15,-10)" stroke="url(#linearGradient3)">
      <rect x="562.208" y="680" clip-path="url(#clipPath2)" width="70.584" rx="20" ry="20" height="40" stroke="none"/>
    </g>
    <g text-rendering="geometricPrecision" stroke-miterlimit="1.45" shape-rendering="geometricPrecision" transform="matrix(1,0,0,1,15,-10)" stroke-linecap="butt">
      <rect x="562.208" y="680" clip-path="url(#clipPath2)" fill="none" width="70.584" rx="20" ry="20" height="40"/>
      <text x="569.208" font-size="18px" y="706.2314" clip-path="url(#clipPath2)" font-family="sans-serif" stroke="none" xml:space="preserve">Tablet</text>
    </g>
    <g fill="url(#linearGradient4)" text-rendering="geometricPrecision" shape-rendering="geometricPrecision" transform="matrix(1,0,0,1,15,-10)" stroke="url(#linearGradient4)">
      <rect x="410.1113" y="580" clip-path="url(#clipPath2)" width="124.7773" rx="20" ry="20" height="40" stroke="none"/>
    </g>
    <g text-rendering="geometricPrecision" stroke-miterlimit="1.45" shape-rendering="geometricPrecision" transform="matrix(1,0,0,1,15,-10)" stroke-linecap="butt">
      <rect x="410.1113" y="580" clip-path="url(#clipPath2)" fill="none" width="124.7773" rx="20" ry="20" height="40"/>
      <text x="417.1113" font-size="18px" y="606.2314" clip-path="url(#clipPath2)" font-family="sans-serif" stroke="none" xml:space="preserve">Smartphone</text>
    </g>
    <g fill="url(#linearGradient5)" text-rendering="geometricPrecision" shape-rendering="geometricPrecision" transform="matrix(1,0,0,1,15,-10)" stroke="url(#linearGradient5)">
      <rect x="405.001" y="680" clip-path="url(#clipPath2)" width="84.998" rx="20" ry="20" height="40" stroke="none"/>
    </g>
    <g text-rendering="geometricPrecision" stroke-miterlimit="1.45" shape-rendering="geometricPrecision" transform="matrix(1,0,0,1,15,-10)" stroke-linecap="butt">
      <rect x="405.001" y="680" clip-path="url(#clipPath2)" fill="none" width="84.998" rx="20" ry="20" height="40"/>
      <text x="412.001" font-size="18px" y="706.2314" clip-path="url(#clipPath2)" font-family="sans-serif" stroke="none" xml:space="preserve">Chrome</text>
    </g>
    <g fill="rgb(245,245,245)" text-rendering="geometricPrecision" shape-rendering="geometricPrecision" transform="matrix(1,0,0,1,15,-10)" stroke="rgb(245,245,245)">
      <rect x="59.125" y="693.5391" clip-path="url(#clipPath2)" width="176.75" rx="4" ry="4" height="212.9219" stroke="none"/>
      <rect x="59.125" y="693.5391" clip-path="url(#clipPath2)" fill="rgb(235,235,235)" width="176.75" height="21.4609" stroke="none"/>
    </g>
    <g font-size="15px" stroke-linecap="butt" transform="matrix(1,0,0,1,15,-10)" text-rendering="geometricPrecision" font-family="sans-serif" shape-rendering="geometricPrecision" stroke-miterlimit="1.45">
      <text x="112.2417" xml:space="preserve" y="709.4624" clip-path="url(#clipPath2)" stroke="none">Receiver Device</text>
      <rect x="59.125" y="693.5391" clip-path="url(#clipPath2)" fill="none" width="176.75" stroke-dasharray="6,2" rx="4" ry="4" height="212.9219"/>
    </g>
    <g fill="url(#linearGradient6)" text-rendering="geometricPrecision" shape-rendering="geometricPrecision" transform="matrix(1,0,0,1,15,-10)" stroke="url(#linearGradient6)">
      <rect x="86.3198" y="830" clip-path="url(#clipPath2)" width="122.3604" rx="20" ry="20" height="40" stroke="none"/>
    </g>
    <g text-rendering="geometricPrecision" stroke-miterlimit="1.45" shape-rendering="geometricPrecision" transform="matrix(1,0,0,1,15,-10)" stroke-linecap="butt">
      <rect x="86.3198" y="830" clip-path="url(#clipPath2)" fill="none" width="122.3604" rx="20" ry="20" height="40"/>
      <text x="93.3198" font-size="18px" y="856.2314" clip-path="url(#clipPath2)" font-family="sans-serif" stroke="none" xml:space="preserve">Chromecast</text>
    </g>
    <g fill="url(#linearGradient7)" text-rendering="geometricPrecision" shape-rendering="geometricPrecision" transform="matrix(1,0,0,1,15,-10)" stroke="url(#linearGradient7)">
      <rect x="74.125" y="730" clip-path="url(#clipPath2)" width="146.75" rx="20" ry="20" height="40" stroke="none"/>
    </g>
    <g text-rendering="geometricPrecision" stroke-miterlimit="1.45" shape-rendering="geometricPrecision" transform="matrix(1,0,0,1,15,-10)" stroke-linecap="butt">
      <rect x="74.125" y="730" clip-path="url(#clipPath2)" fill="none" width="146.75" rx="20" ry="20" height="40"/>
      <text x="81.125" font-size="18px" y="756.2314" clip-path="url(#clipPath2)" font-family="sans-serif" stroke="none" xml:space="preserve">UPNP Receiver</text>
    </g>
    <g text-rendering="geometricPrecision" stroke-miterlimit="1.45" shape-rendering="geometricPrecision" transform="matrix(1,0,0,1,15,-10)" stroke-linecap="butt">
      <path fill="none" d="M522.5 514.9658 L522.5 375 L172.5 375 L172.5 685.5002" clip-path="url(#clipPath2)"/>
      <path d="M172.5 693.5002 L177.5 681.5002 L172.5 684.5002 L167.5 681.5002 Z" clip-path="url(#clipPath2)" stroke="none"/>
      <text x="330.0453" font-size="18px" y="358.7549" clip-path="url(#clipPath2)" font-family="sans-serif" stroke="none" xml:space="preserve">discover</text>
      <path fill="none" d="M522.5 735 L522.5 800 L243.875 800" clip-path="url(#clipPath2)"/>
      <path d="M235.875 800 L247.875 805 L244.875 800 L247.875 795 Z" clip-path="url(#clipPath2)" stroke="none"/>
      <text x="364.749" font-size="18px" y="783.7549" clip-path="url(#clipPath2)" font-family="sans-serif" stroke="none" xml:space="preserve">connect</text>
      <path fill="none" d="M389.9601 625 L222.5 625 L222.5 685.5056" clip-path="url(#clipPath2)"/>
      <path d="M222.5 693.5056 L227.5 681.5056 L222.5 684.5056 L217.5 681.5056 Z" clip-path="url(#clipPath2)" stroke="none"/>
      <text x="273.8511" font-size="18px" y="608.7549" clip-path="url(#clipPath2)" font-family="sans-serif" stroke="none" xml:space="preserve">launch ID</text>
      <path fill="none" d="M147.5 685.5126 L147.5 268" clip-path="url(#clipPath2)"/>
      <path d="M147.5 693.5126 L152.5 681.5126 L147.5 684.5126 L142.5 681.5126 Z" clip-path="url(#clipPath2)" stroke="none"/>
      <path d="M147.5 260 L142.5 272 L147.5 269 L152.5 272 Z" clip-path="url(#clipPath2)" stroke="none"/>
      <text x="9.1484" font-size="18px" y="342.0157" clip-path="url(#clipPath2)" font-family="sans-serif" stroke="none" xml:space="preserve">get URL for ID</text>
      <path fill="none" d="M147.5 914.4609 L147.5 975 L689.4664 975" clip-path="url(#clipPath2)"/>
      <path d="M147.5 906.4609 L142.5 918.4609 L147.5 915.4609 L152.5 918.4609 Z" clip-path="url(#clipPath2)" stroke="none"/>
      <path d="M697.4664 975 L685.4664 970 L688.4664 975 L685.4664 980 Z" clip-path="url(#clipPath2)" stroke="none"/>
      <text x="375.8972" font-size="18px" y="958.7549" clip-path="url(#clipPath2)" font-family="sans-serif" stroke="none" xml:space="preserve">get Application</text>
      <path fill="none" stroke-dasharray="6,2" d="M197.5 685.5093 L197.5 450 L497.5 450 L497.5 506.9683" clip-path="url(#clipPath2)"/>
      <path stroke-dasharray="6,2" d="M197.5 693.5093 L202.5 681.5093 L197.5 684.5093 L192.5 681.5093 Z" clip-path="url(#clipPath2)" stroke="none"/>
      <path stroke-dasharray="6,2" d="M497.5 514.9683 L502.5 502.9683 L497.5 505.9683 L492.5 502.9683 Z" clip-path="url(#clipPath2)" stroke="none"/>
      <text x="236.7227" font-size="18px" y="433.7549" clip-path="url(#clipPath2)" font-family="sans-serif" stroke="none" xml:space="preserve">send &amp; receive message</text>
    </g>
  </g>
</svg>
